{"asset":{"version":"2.0"},"scene":0,"scenes":[{"nodes":[0]}],"nodes":[{"mesh":0,"rotation":[-0.7071068,0.0,0.0,0.7071067],"name":"grass"}],"meshes":[{"primitives":[{"attributes":{"POSITION":1,"NORMAL":2,"TEXCOORD_0":3},"indices":0,"material":0}],"name":"grass"}],"accessors":[{"bufferView":0,"componentType":5123,"count":108,"type":"SCALAR","name":"accessorIndices"},{"bufferView":1,"componentType":5126,"count":48,"max":[0.001561,0.001206,0.002282],"min":[-0.001494,-0.001003,-0.000152],"type":"VEC3","name":"accessorPositions"},{"bufferView":1,"byteOffset":576,"componentType":5126,"count":48,"type":"VEC3","name":"accessorNormals"},{"bufferView":2,"componentType":5126,"count":48,"type":"VEC2","name":"accessorUVs"}],"bufferViews":[{"buffer":0,"byteLength":216,"name":"bufferViewScalar"},{"buffer":0,"byteOffset":216,"byteLength":1152,"byteStride":12,"name":"bufferViewFloatVec3"},{"buffer":0,"byteOffset":1368,"byteLength":384,"byteStride":8,"name":"bufferViewFloatVec2"}],"buffers":[{"uri":"scene.bin","byteLength":1752}],"materials":[{"pbrMetallicRoughness":{"baseColorFactor":[0.5882,0.5882,0.5882,1.0],"metallicFactor":0.0,"roughnessFactor":0.450053632},"name":"material0"}]}