{"asset":{"version":"2.0","generator":"babylon.js glTF exporter for 3dsmax 2022 v20221031.2"},"scene":0,"scenes":[{"nodes":[0]}],"nodes":[{"children":[1],"name":"Dummy001"},{"children":[2,60,65],"translation":[-0.0502781942,0.8294159,-0.212880388],"rotation":[0.6803225,-0.132119179,0.09554491,0.7145467],"scale":[0.3937008,0.393700719,0.393700838],"name":"mixamorig:Hips"},{"children":[3],"translation":[6.54029861E-07,0.0004059103,-0.369828016],"rotation":[0.0386125,0.000105864,0.00563133368,0.9992384],"scale":[1.00000012,1.0,0.99999994],"name":"mixamorig:Spine"},{"children":[4],"translation":[4.84466547E-08,0.0,-0.299814641],"rotation":[0.09655266,0.008579041,0.00689756637,0.995267034],"scale":[0.9999998,0.9999998,1.0],"name":"mixamorig:Spine1"},{"children":[5,12,36],"translation":[2.42233273E-08,9.689331E-08,-0.262269258],"rotation":[0.08837885,0.007370103,0.007234462,0.99603343],"scale":[0.999999762,0.9999997,1.0],"name":"mixamorig:Spine2"},{"children":[6],"translation":[-2.42233273E-08,-0.06684922,-0.6996798],"rotation":[0.0553813763,0.00254829717,0.0165103264,0.9983255],"scale":[0.99999994,0.99999994,1.0],"name":"mixamorig:Neck"},{"children":[7,8,9,10],"translation":[-2.42233273E-08,0.258129,-0.343074977],"rotation":[-0.0138931861,0.020865649,0.0884366,0.995766342],"scale":[0.99999994,0.9999998,1.0],"name":"mixamorig:Head"},{"translation":[0.0,0.0702413544,-0.40468964],"rotation":[-7.45058149E-09,-4.440892E-16,-4.656615E-09,1.0],"scale":[0.9999997,0.9999999,0.9999998],"name":"mixamorig:HeadTop_End"},{"translation":[0.105552495,0.275100559,-0.116278559],"rotation":[-7.45058149E-09,-4.440892E-16,-4.656615E-09,1.0],"scale":[0.9999997,0.9999999,0.9999998],"name":"mixamorig:LeftEye"},{"translation":[-0.105552472,0.275100172,-0.116286315],"rotation":[-7.45058149E-09,-4.440892E-16,-4.656615E-09,1.0],"scale":[0.9999997,0.9999999,0.9999998],"name":"mixamorig:RightEye"},{"children":[11],"translation":[-0.159781039,0.199148014,-0.4072414],"rotation":[0.527834058,-0.814009845,0.131905839,-0.203421161],"scale":[1.0,0.9999998,0.9999999],"name":"mixamorig:RightHair1"},{"translation":[0.0,-3.87573238E-07,-0.230769441],"rotation":[-7.45058149E-09,0.0,0.0,1.0],"scale":[1.0,0.99999994,1.0],"name":"mixamorig:RightHair2"},{"children":[13],"translation":[0.208912238,-0.122462772,-0.617616951],"rotation":[0.477354228,-0.5710135,-0.524439931,0.413569033],"scale":[0.9999997,0.9999999,0.999999762],"name":"mixamorig:LeftShoulder"},{"children":[14],"translation":[3.87573238E-07,0.0,-0.441491544],"rotation":[0.304656476,0.02896901,-0.06136774,0.9500417],"scale":[0.9999998,1.00000012,1.00000012],"name":"mixamorig:LeftArm"},{"children":[15],"translation":[0.0,0.0,-0.758904755],"rotation":[-1.17563829E-07,0.8425069,9.681726E-08,0.5386856],"scale":[1.0,1.0,0.9999999],"name":"mixamorig:LeftForeArm"},{"children":[16,20,24,28,32],"translation":[0.0,0.0,-0.803241849],"rotation":[-0.232651249,-0.073040165,0.2603054,0.934226751],"scale":[1.00000024,1.0,1.00000012],"name":"mixamorig:LeftHand"},{"children":[17],"translation":[-0.17152752,0.132465169,-0.156399],"rotation":[0.308832735,0.166483551,-0.112163976,0.9296908],"scale":[0.9999999,0.9999999,0.9999998],"name":"mixamorig:LeftHandThumb1"},{"children":[18],"translation":[-1.93786619E-07,0.0,-0.08040082],"rotation":[-0.00707519753,-0.135623991,0.00254722452,0.9907319],"scale":[0.9999998,0.99999994,0.9999998],"name":"mixamorig:LeftHandThumb2"},{"children":[19],"translation":[0.0,0.0,-0.106771581],"rotation":[-0.030040225,-0.0456091724,0.00160040625,0.9985063],"scale":[0.99999994,1.00000012,0.99999994],"name":"mixamorig:LeftHandThumb3"},{"translation":[0.0,1.93786619E-07,-0.114101805],"rotation":[-3.7252903E-09,7.450581E-09,7.450581E-09,1.0],"scale":[0.9999999,1.0,1.0],"name":"mixamorig:LeftHandThumb4"},{"children":[21],"translation":[-0.115254007,0.03807074,-0.3959821],"rotation":[0.111939229,-0.0135357305,2.53832559E-06,0.9936229],"scale":[0.99999994,0.999999762,0.999999762],"name":"mixamorig:LeftHandIndex1"},{"children":[22],"translation":[-1.93786619E-07,-9.689331E-08,-0.133024052],"rotation":[0.08144214,-0.009831836,-2.355454E-07,0.9966296],"scale":[0.9999999,1.0,1.0],"name":"mixamorig:LeftHandIndex2"},{"children":[23],"translation":[0.0,0.0,-0.137867942],"rotation":[0.0407553725,-0.00492017437,4.84841962E-08,0.9991571],"scale":[1.0,0.9999998,1.0],"name":"mixamorig:LeftHandIndex3"},{"translation":[0.0,-9.689331E-08,-0.105021104],"rotation":[-2.32830679E-08,3.72529074E-09,0.0,1.0],"scale":[0.9999999,0.9999999,0.9999999],"name":"mixamorig:LeftHandIndex4"},{"children":[25],"translation":[1.24023436E-05,-4.61212148E-05,-0.398902267],"rotation":[0.111800708,-0.0135191139,2.69563134E-06,0.9936387],"scale":[1.0,1.0,1.00000012],"name":"mixamorig:LeftHandMiddle1"},{"children":[26],"translation":[-1.93786619E-07,0.0,-0.121457361],"rotation":[0.0815813,-0.00984887,-2.09294981E-07,0.9966181],"scale":[1.0,0.99999994,1.0],"name":"mixamorig:LeftHandMiddle2"},{"children":[27],"translation":[0.0,9.689331E-08,-0.130499],"rotation":[0.04075536,-0.004920252,1.49137325E-08,0.9991571],"scale":[1.0,1.0,1.00000024],"name":"mixamorig:LeftHandMiddle3"},{"translation":[0.0,9.689331E-08,-0.109432317],"rotation":[4.656615E-09,-3.72528941E-09,3.7252903E-09,1.0],"scale":[1.0,0.99999994,1.00000024],"name":"mixamorig:LeftHandMiddle4"},{"children":[29],"translation":[0.119608589,0.0151252393,-0.358429968],"rotation":[0.111938991,-0.0135364141,2.62069E-06,0.993622959],"scale":[0.9999998,0.9999999,0.9999999],"name":"mixamorig:LeftHandRing1"},{"children":[30],"translation":[3.87573238E-07,1.93786619E-07,-0.08240224],"rotation":[0.08144234,-0.009831881,-2.16797545E-07,0.996629536],"scale":[0.9999998,0.9999999,1.00000012],"name":"mixamorig:LeftHandRing2"},{"children":[31],"translation":[-1.93786619E-07,0.0,-0.103881039],"rotation":[0.0407556742,-0.00491987262,4.474848E-08,0.9991571],"scale":[1.0,0.99999994,1.0],"name":"mixamorig:LeftHandRing3"},{"translation":[0.0,-9.689331E-08,-0.10278292],"rotation":[6.519259E-09,3.72529074E-09,3.72529074E-09,1.0],"scale":[0.9999999,0.9999998,0.9999999],"name":"mixamorig:LeftHandRing4"},{"children":[33],"translation":[0.194477856,0.0287954323,-0.299060017],"rotation":[0.107443318,-0.04867495,-0.004017388,0.9930109],"scale":[0.99999994,0.9999998,1.0],"name":"mixamorig:LeftHandPinky1"},{"children":[34],"translation":[0.0,9.689331E-08,-0.07342575],"rotation":[0.0858290941,0.0254280772,-0.00292461133,0.995981038],"scale":[0.99999994,0.9999998,0.9999999],"name":"mixamorig:LeftHandPinky2"},{"children":[35],"translation":[0.0,-1.93786619E-07,-0.09169622],"rotation":[0.0407558829,-0.00492020324,2.98129024E-08,0.9991571],"scale":[1.0,1.00000012,1.00000036],"name":"mixamorig:LeftHandPinky3"},{"translation":[3.87573238E-07,-9.689331E-08,-0.05816336],"rotation":[-7.45058149E-09,3.7252903E-09,3.7252903E-09,1.0],"scale":[1.0,1.0,0.99999994],"name":"mixamorig:LeftHandPinky4"},{"children":[37],"translation":[-0.208912179,-0.122462772,-0.6176154],"rotation":[-0.466325045,-0.6185724,-0.5205884,-0.359022141],"scale":[1.0,0.999999762,1.0],"name":"mixamorig:RightShoulder"},{"children":[38],"translation":[0.0,0.0,-0.441491544],"rotation":[0.244328827,-0.157655671,-0.0127341626,0.9567058],"scale":[0.99999994,0.99999994,0.99999994],"name":"mixamorig:RightArm"},{"children":[39],"translation":[-1.93786619E-07,-1.93786619E-07,-0.758903563],"rotation":[2.53943767E-07,-0.7243067,-2.97168242E-07,0.6894779],"scale":[1.00000012,1.00000012,1.0],"name":"mixamorig:RightForeArm"},{"children":[40,44,48,52,56],"translation":[-2.90679935E-07,1.93786619E-07,-0.7409537],"rotation":[-0.321912736,0.1295462,-0.290620744,0.8917004],"scale":[0.99999994,1.00000012,0.99999994],"name":"mixamorig:RightHand"},{"children":[41],"translation":[0.165029272,0.150061384,-0.163656682],"rotation":[0.328632534,-0.297543079,0.01338008,0.8962644],"scale":[1.00000012,1.00000024,1.0],"name":"mixamorig:RightHandThumb1"},{"children":[42],"translation":[1.93786619E-07,0.0,-0.101576164],"rotation":[0.01687564,0.203077212,0.022271499,0.978763938],"scale":[1.00000012,1.00000012,0.99999994],"name":"mixamorig:RightHandThumb2"},{"children":[43],"translation":[-3.87573238E-07,-1.93786619E-07,-0.07554321],"rotation":[-0.0209405869,0.0594867878,0.0113214664,0.997945249],"scale":[0.9999998,0.99999994,0.9999998],"name":"mixamorig:RightHandThumb3"},{"translation":[1.93786619E-07,0.0,-0.108967282],"rotation":[-3.72529074E-09,3.7252903E-09,8.881784E-16,1.0],"scale":[1.0,0.9999999,0.99999994],"name":"mixamorig:RightHandThumb4"},{"children":[45],"translation":[0.09847286,0.03107039,-0.366767436],"rotation":[0.123369254,0.0150238629,1.419221E-06,0.9922471],"scale":[0.99999994,1.0,0.99999994],"name":"mixamorig:RightHandIndex1"},{"children":[46],"translation":[1.93786619E-07,-1.93786619E-07,-0.126234978],"rotation":[0.119483307,0.014562224,-2.24568115E-08,0.9927294],"scale":[0.99999994,1.0,1.0],"name":"mixamorig:RightHandIndex2"},{"children":[47],"translation":[-1.93786619E-07,0.0,-0.1268126],"rotation":[0.0598503426,0.007294203,1.04498241E-07,0.998180747],"scale":[1.00000012,1.00000012,1.00000024],"name":"mixamorig:RightHandIndex3"},{"translation":[1.93786619E-07,0.0,-0.09299655],"rotation":[7.45058149E-09,-7.45058149E-09,-3.72528985E-09,1.0],"scale":[1.0,0.9999999,0.99999994],"name":"mixamorig:RightHandIndex4"},{"children":[49],"translation":[5.81359836E-06,3.33313E-05,-0.37136066],"rotation":[0.123369068,0.0150237782,1.40414488E-06,0.992247164],"scale":[1.0,1.0,1.00000012],"name":"mixamorig:RightHandMiddle1"},{"children":[50],"translation":[0.0,0.0,-0.109025516],"rotation":[0.119483694,0.0145626785,-5.992391E-08,0.992729366],"scale":[0.9999999,1.0,0.9999999],"name":"mixamorig:RightHandMiddle2"},{"children":[51],"translation":[-3.87573238E-07,0.0,-0.113187566],"rotation":[0.0598510019,0.00729421526,8.959906E-08,0.9981806],"scale":[1.0,1.00000012,1.0],"name":"mixamorig:RightHandMiddle3"},{"translation":[-3.87573238E-07,3.87573238E-07,-0.08818488],"rotation":[-5.58793545E-09,-7.45058149E-09,-3.72529074E-09,1.0],"scale":[0.9999999,1.0,0.9999999],"name":"mixamorig:RightHandMiddle4"},{"children":[53],"translation":[-0.102214493,0.00885256,-0.340320319],"rotation":[0.123369105,0.0150237363,1.41916246E-06,0.992247164],"scale":[1.0,1.0,1.00000012],"name":"mixamorig:RightHandRing1"},{"children":[54],"translation":[0.0,0.0,-0.07183859],"rotation":[0.119483642,0.0145624839,-4.49722535E-08,0.992729366],"scale":[0.9999998,0.9999999,1.0],"name":"mixamorig:RightHandRing2"},{"children":[55],"translation":[-1.93786619E-07,-1.93786619E-07,-0.10001754],"rotation":[0.05985047,0.00729474239,5.22636974E-08,0.998180747],"scale":[0.99999994,1.0,1.0],"name":"mixamorig:RightHandRing3"},{"translation":[-1.93786619E-07,3.87573238E-07,-0.0862422138],"rotation":[-1.490116E-08,1.49011594E-08,7.450581E-09,1.0],"scale":[1.00000012,1.0,1.00000012],"name":"mixamorig:RightHandRing4"},{"children":[57],"translation":[-0.17402561,0.0255096834,-0.2914944],"rotation":[0.123369128,0.0150231458,1.49425034E-06,0.992247164],"scale":[1.0,1.0,1.00000012],"name":"mixamorig:RightHandPinky1"},{"children":[58],"translation":[0.0,0.0,-0.06612324],"rotation":[0.119483441,0.0145621151,-2.23981775E-08,0.9927294],"scale":[0.9999999,1.0,1.00000012],"name":"mixamorig:RightHandPinky2"},{"children":[59],"translation":[3.87573238E-07,-1.93786619E-07,-0.08090984],"rotation":[0.0598508,0.007294732,6.719202E-08,0.998180747],"scale":[0.9999999,0.99999994,0.9999998],"name":"mixamorig:RightHandPinky3"},{"translation":[-1.93786619E-07,1.93786619E-07,-0.0637906343],"rotation":[9.313224E-09,0.0,3.725289E-09,1.0],"scale":[1.00000012,1.00000024,1.00000012],"name":"mixamorig:RightHandPinky4"},{"children":[61],"translation":[0.357169867,0.00233428087,0.118397422],"rotation":[-0.0239295773,-0.9220314,0.328366846,0.203619152],"scale":[1.0,1.0,1.00000024],"name":"mixamorig:LeftUpLeg"},{"children":[62],"translation":[0.0,0.0,-0.918104053],"rotation":[-0.667619,0.0553278849,-0.01839423,0.7422166],"scale":[1.00000012,0.9999999,0.99999994],"name":"mixamorig:LeftLeg"},{"children":[63],"translation":[0.0,0.0,-1.41426814],"rotation":[0.6958972,-0.184232011,0.120610781,0.68354857],"scale":[1.00000012,1.0,1.0],"name":"mixamorig:LeftFoot"},{"children":[64],"translation":[-9.689331E-08,-6.055832E-09,-0.609600067],"rotation":[0.3225158,-0.00407524873,0.0085411435,0.946516752],"scale":[1.0,1.00000024,1.0],"name":"mixamorig:LeftToeBase"},{"translation":[0.0,7.56979E-10,-0.2846891],"rotation":[0.0,-1.45519166E-10,2.328307E-10,1.0],"scale":[0.99999994,0.9999998,0.99999994],"name":"mixamorig:LeftToe_End"},{"children":[66],"translation":[-0.357169926,0.00233437773,0.118385606],"rotation":[-0.03302557,-0.874611735,0.48105374,-0.05050696],"scale":[1.00000012,1.0,1.0],"name":"mixamorig:RightUpLeg"},{"children":[67],"translation":[0.0,9.689331E-08,-0.91811496],"rotation":[-0.699394643,-0.0309229214,0.0834319,0.709175646],"scale":[0.999999762,0.9999998,0.9999997],"name":"mixamorig:RightLeg"},{"children":[68],"translation":[0.0,-4.84466547E-08,-1.414268],"rotation":[0.6527881,0.137840718,0.06781115,0.7418014],"scale":[1.0,1.00000012,0.99999994],"name":"mixamorig:RightFoot"},{"children":[69],"translation":[0.0,1.21116637E-08,-0.6096],"rotation":[0.3752128,0.004103644,-0.0103296293,0.926872134],"scale":[0.9999999,1.0,0.99999994],"name":"mixamorig:RightToeBase"},{"translation":[-2.90679935E-07,-4.541874E-09,-0.284683257],"rotation":[-3.72528985E-09,-6.002665E-10,5.8207647E-11,1.0],"scale":[1.0,1.00000024,1.0],"name":"mixamorig:RightToe_End"}],"accessors":[{"bufferView":0,"componentType":5126,"count":164,"max":[5.4333334],"min":[0.0],"type":"SCALAR","name":"accessorAnimationInput"},{"bufferView":1,"componentType":5126,"count":164,"type":"VEC3","name":"accessorAnimationPositions"},{"bufferView":0,"byteOffset":656,"componentType":5126,"count":164,"max":[5.4333334],"min":[0.0],"type":"SCALAR","name":"accessorAnimationInput"},{"bufferView":2,"componentType":5126,"count":164,"type":"VEC4","name":"accessorAnimationRotations"},{"bufferView":0,"byteOffset":1312,"componentType":5126,"count":164,"max":[5.4333334],"min":[0.0],"type":"SCALAR","name":"accessorAnimationInput"},{"bufferView":2,"byteOffset":2624,"componentType":5126,"count":164,"type":"VEC4","name":"accessorAnimationRotations"},{"bufferView":0,"byteOffset":1968,"componentType":5126,"count":164,"max":[5.4333334],"min":[0.0],"type":"SCALAR","name":"accessorAnimationInput"},{"bufferView":2,"byteOffset":5248,"componentType":5126,"count":164,"type":"VEC4","name":"accessorAnimationRotations"},{"bufferView":0,"byteOffset":2624,"componentType":5126,"count":164,"max":[5.4333334],"min":[0.0],"type":"SCALAR","name":"accessorAnimationInput"},{"bufferView":2,"byteOffset":7872,"componentType":5126,"count":164,"type":"VEC4","name":"accessorAnimationRotations"},{"bufferView":0,"byteOffset":3280,"componentType":5126,"count":164,"max":[5.4333334],"min":[0.0],"type":"SCALAR","name":"accessorAnimationInput"},{"bufferView":2,"byteOffset":10496,"componentType":5126,"count":164,"type":"VEC4","name":"accessorAnimationRotations"},{"bufferView":0,"byteOffset":3936,"componentType":5126,"count":164,"max":[5.4333334],"min":[0.0],"type":"SCALAR","name":"accessorAnimationInput"},{"bufferView":2,"byteOffset":13120,"componentType":5126,"count":164,"type":"VEC4","name":"accessorAnimationRotations"},{"bufferView":0,"byteOffset":4592,"componentType":5126,"count":164,"max":[5.4333334],"min":[0.0],"type":"SCALAR","name":"accessorAnimationInput"},{"bufferView":2,"byteOffset":15744,"componentType":5126,"count":164,"type":"VEC4","name":"accessorAnimationRotations"},{"bufferView":0,"byteOffset":5248,"componentType":5126,"count":164,"max":[5.4333334],"min":[0.0],"type":"SCALAR","name":"accessorAnimationInput"},{"bufferView":2,"byteOffset":18368,"componentType":5126,"count":164,"type":"VEC4","name":"accessorAnimationRotations"},{"bufferView":0,"byteOffset":5904,"componentType":5126,"count":164,"max":[5.4333334],"min":[0.0],"type":"SCALAR","name":"accessorAnimationInput"},{"bufferView":2,"byteOffset":20992,"componentType":5126,"count":164,"type":"VEC4","name":"accessorAnimationRotations"},{"bufferView":0,"byteOffset":6560,"componentType":5126,"count":164,"max":[5.4333334],"min":[0.0],"type":"SCALAR","name":"accessorAnimationInput"},{"bufferView":2,"byteOffset":23616,"componentType":5126,"count":164,"type":"VEC4","name":"accessorAnimationRotations"},{"bufferView":0,"byteOffset":7216,"componentType":5126,"count":164,"max":[5.4333334],"min":[0.0],"type":"SCALAR","name":"accessorAnimationInput"},{"bufferView":2,"byteOffset":26240,"componentType":5126,"count":164,"type":"VEC4","name":"accessorAnimationRotations"},{"bufferView":0,"byteOffset":7872,"componentType":5126,"count":164,"max":[5.4333334],"min":[0.0],"type":"SCALAR","name":"accessorAnimationInput"},{"bufferView":2,"byteOffset":28864,"componentType":5126,"count":164,"type":"VEC4","name":"accessorAnimationRotations"},{"bufferView":0,"byteOffset":8528,"componentType":5126,"count":164,"max":[5.4333334],"min":[0.0],"type":"SCALAR","name":"accessorAnimationInput"},{"bufferView":2,"byteOffset":31488,"componentType":5126,"count":164,"type":"VEC4","name":"accessorAnimationRotations"},{"bufferView":0,"byteOffset":9184,"componentType":5126,"count":164,"max":[5.4333334],"min":[0.0],"type":"SCALAR","name":"accessorAnimationInput"},{"bufferView":2,"byteOffset":34112,"componentType":5126,"count":164,"type":"VEC4","name":"accessorAnimationRotations"},{"bufferView":0,"byteOffset":9840,"componentType":5126,"count":164,"max":[5.4333334],"min":[0.0],"type":"SCALAR","name":"accessorAnimationInput"},{"bufferView":2,"byteOffset":36736,"componentType":5126,"count":164,"type":"VEC4","name":"accessorAnimationRotations"},{"bufferView":0,"byteOffset":10496,"componentType":5126,"count":164,"max":[5.4333334],"min":[0.0],"type":"SCALAR","name":"accessorAnimationInput"},{"bufferView":2,"byteOffset":39360,"componentType":5126,"count":164,"type":"VEC4","name":"accessorAnimationRotations"},{"bufferView":0,"byteOffset":11152,"componentType":5126,"count":164,"max":[5.4333334],"min":[0.0],"type":"SCALAR","name":"accessorAnimationInput"},{"bufferView":2,"byteOffset":41984,"componentType":5126,"count":164,"type":"VEC4","name":"accessorAnimationRotations"},{"bufferView":0,"byteOffset":11808,"componentType":5126,"count":164,"max":[5.4333334],"min":[0.0],"type":"SCALAR","name":"accessorAnimationInput"},{"bufferView":2,"byteOffset":44608,"componentType":5126,"count":164,"type":"VEC4","name":"accessorAnimationRotations"},{"bufferView":0,"byteOffset":12464,"componentType":5126,"count":164,"max":[5.4333334],"min":[0.0],"type":"SCALAR","name":"accessorAnimationInput"},{"bufferView":2,"byteOffset":47232,"componentType":5126,"count":164,"type":"VEC4","name":"accessorAnimationRotations"},{"bufferView":0,"byteOffset":13120,"componentType":5126,"count":164,"max":[5.4333334],"min":[0.0],"type":"SCALAR","name":"accessorAnimationInput"},{"bufferView":2,"byteOffset":49856,"componentType":5126,"count":164,"type":"VEC4","name":"accessorAnimationRotations"},{"bufferView":0,"byteOffset":13776,"componentType":5126,"count":164,"max":[5.4333334],"min":[0.0],"type":"SCALAR","name":"accessorAnimationInput"},{"bufferView":2,"byteOffset":52480,"componentType":5126,"count":164,"type":"VEC4","name":"accessorAnimationRotations"},{"bufferView":0,"byteOffset":14432,"componentType":5126,"count":164,"max":[5.4333334],"min":[0.0],"type":"SCALAR","name":"accessorAnimationInput"},{"bufferView":2,"byteOffset":55104,"componentType":5126,"count":164,"type":"VEC4","name":"accessorAnimationRotations"}],"bufferViews":[{"buffer":0,"byteLength":15088,"name":"bufferViewAnimationFloatScalar"},{"buffer":0,"byteOffset":15088,"byteLength":1968,"name":"bufferViewAnimationFloatVec3"},{"buffer":0,"byteOffset":17056,"byteLength":57728,"name":"bufferViewAnimationFloatVec4"}],"buffers":[{"uri":"dancing0.bin","byteLength":74784}],"animations":[{"channels":[{"sampler":0,"target":{"node":1,"path":"translation"}},{"sampler":1,"target":{"node":1,"path":"rotation"}},{"sampler":2,"target":{"node":2,"path":"rotation"}},{"sampler":3,"target":{"node":3,"path":"rotation"}},{"sampler":4,"target":{"node":4,"path":"rotation"}},{"sampler":5,"target":{"node":5,"path":"rotation"}},{"sampler":6,"target":{"node":6,"path":"rotation"}},{"sampler":7,"target":{"node":12,"path":"rotation"}},{"sampler":8,"target":{"node":13,"path":"rotation"}},{"sampler":9,"target":{"node":14,"path":"rotation"}},{"sampler":10,"target":{"node":15,"path":"rotation"}},{"sampler":11,"target":{"node":36,"path":"rotation"}},{"sampler":12,"target":{"node":37,"path":"rotation"}},{"sampler":13,"target":{"node":38,"path":"rotation"}},{"sampler":14,"target":{"node":39,"path":"rotation"}},{"sampler":15,"target":{"node":60,"path":"rotation"}},{"sampler":16,"target":{"node":61,"path":"rotation"}},{"sampler":17,"target":{"node":62,"path":"rotation"}},{"sampler":18,"target":{"node":63,"path":"rotation"}},{"sampler":19,"target":{"node":65,"path":"rotation"}},{"sampler":20,"target":{"node":66,"path":"rotation"}},{"sampler":21,"target":{"node":67,"path":"rotation"}},{"sampler":22,"target":{"node":68,"path":"rotation"}}],"samplers":[{"input":0,"output":1},{"input":2,"output":3},{"input":4,"output":5},{"input":6,"output":7},{"input":8,"output":9},{"input":10,"output":11},{"input":12,"output":13},{"input":14,"output":15},{"input":16,"output":17},{"input":18,"output":19},{"input":20,"output":21},{"input":22,"output":23},{"input":24,"output":25},{"input":26,"output":27},{"input":28,"output":29},{"input":30,"output":31},{"input":32,"output":33},{"input":34,"output":35},{"input":36,"output":37},{"input":38,"output":39},{"input":40,"output":41},{"input":42,"output":43},{"input":44,"output":45}],"name":"All Animations"}]}