{"asset":{"version":"2.0","generator":"babylon.js glTF exporter for 3dsmax 2022 v20221031.2"},"scene":0,"scenes":[{"nodes":[0,1]}],"nodes":[{"skin":0,"mesh":0,"rotation":[0.7071068,0.0,0.0,0.7071067],"scale":[0.393700778,0.393700778,0.393700778],"name":"Survivor","extras":{"currentUVSet":"UVChannel_1"}},{"children":[2,60,65],"translation":[-0.00367437443,1.08456755,-0.00206231512],"rotation":[0.674902737,0.018383475,-0.001687676,0.7376757],"scale":[0.393700778,0.3937008,0.393700778],"name":"mixamorig:Hips"},{"children":[3],"translation":[6.298065E-07,0.0004059103,-0.3698282],"rotation":[0.0446622856,-0.0345638022,0.0211461447,0.998180151],"scale":[0.99999994,0.999999642,0.9999995],"name":"mixamorig:Spine"},{"children":[4],"translation":[-2.42233273E-08,0.0,-0.29981485],"rotation":[0.0462081544,0.00281435926,0.00670979638,0.998905361],"scale":[1.0,0.99999994,0.99999994],"name":"mixamorig:Spine1"},{"children":[5,12,36],"translation":[0.0,0.0,-0.262270033],"rotation":[0.008439005,0.002877929,0.00765543338,0.999931],"scale":[0.999999762,0.999999642,0.9999999],"name":"mixamorig:Spine2"},{"children":[6],"translation":[1.21116637E-08,-0.0668491647,-0.6996798],"rotation":[-0.04687205,0.0290906765,-0.0136746289,0.998383641],"scale":[1.00000012,0.9999997,1.0],"name":"mixamorig:Neck"},{"children":[7,8,9,10],"translation":[1.21116637E-08,0.258128852,-0.3430752],"rotation":[0.0280441158,-0.009220995,0.0141149666,0.9994645],"scale":[1.00000012,0.99999994,1.00000024],"name":"mixamorig:Head"},{"translation":[0.0,0.07024126,-0.404689252],"rotation":[0.0,0.0,3.85625754E-10,1.0],"name":"mixamorig:HeadTop_End"},{"translation":[0.10555248,0.2751007,-0.116278172],"rotation":[0.0,0.0,3.85625754E-10,1.0],"name":"mixamorig:LeftEye"},{"translation":[-0.105552547,0.275100172,-0.116287477],"rotation":[0.0,0.0,3.85625754E-10,1.0],"name":"mixamorig:RightEye"},{"children":[11],"translation":[-0.159781143,0.199148044,-0.407242566],"rotation":[0.527834058,-0.814009845,0.131905824,-0.203421161],"scale":[1.00000012,1.00000012,1.00000012],"name":"mixamorig:RightHair1"},{"translation":[-1.93786619E-07,0.0,-0.230769634],"rotation":[-7.45058149E-09,0.0,-7.45058149E-09,1.0],"scale":[0.999999762,0.9999999,0.9999998],"name":"mixamorig:RightHair2"},{"children":[13],"translation":[0.208912313,-0.122462675,-0.617616534],"rotation":[0.500232756,-0.5527479,-0.5092893,0.429955125],"scale":[0.9999998,1.0,1.00000024],"name":"mixamorig:LeftShoulder"},{"children":[14],"translation":[-9.689331E-08,0.0,-0.4414916],"rotation":[0.582019031,0.1405841,-0.188521132,0.7784277],"scale":[0.99999994,1.00000012,1.0],"name":"mixamorig:LeftArm"},{"children":[15],"translation":[9.689331E-08,9.689331E-08,-0.758905232],"rotation":[1.22742733E-07,0.164435714,2.5964809E-08,0.986387849],"scale":[1.0,0.99999994,1.0],"name":"mixamorig:LeftForeArm"},{"children":[16,20,24,28,32],"translation":[0.0,-9.689331E-08,-0.803242],"rotation":[-0.0139651317,-0.0461065769,0.207980663,0.9769459],"scale":[1.00000036,1.00000012,1.00000012],"name":"mixamorig:LeftHand"},{"children":[17],"translation":[-0.171527341,0.132464975,-0.156399369],"rotation":[0.116136245,0.144750759,-0.148219422,0.9713859],"scale":[1.00000012,0.9999999,1.0],"name":"mixamorig:LeftHandThumb1"},{"children":[18],"translation":[0.0,-4.84466547E-08,-0.08040071],"rotation":[0.0146357873,-0.121968843,-6.943328E-05,0.992426038],"scale":[0.9999999,0.9999999,0.9999999],"name":"mixamorig:LeftHandThumb2"},{"children":[19],"translation":[2.42233273E-08,0.0,-0.106771581],"rotation":[-0.127367467,0.193194509,-0.0264899619,0.972497642],"scale":[0.99999994,1.00000012,1.00000012],"name":"mixamorig:LeftHandThumb3"},{"translation":[0.0,-9.689331E-08,-0.114101753],"rotation":[5.587936E-09,7.450584E-09,-9.313226E-09,1.0],"scale":[1.0,1.0,0.9999999],"name":"mixamorig:LeftHandThumb4"},{"children":[21],"translation":[-0.115254104,0.03807074,-0.3959824],"rotation":[0.114919879,-0.03238845,0.00181206525,0.992845],"scale":[1.00000012,1.0,1.0],"name":"mixamorig:LeftHandIndex1"},{"children":[22],"translation":[0.0,-7.26699838E-08,-0.133024052],"rotation":[0.0880615339,-0.00909749,-2.9920564E-05,0.9960735],"scale":[0.99999994,1.0,1.00000012],"name":"mixamorig:LeftHandIndex2"},{"children":[23],"translation":[6.055832E-09,-1.45339968E-07,-0.137867942],"rotation":[0.08806146,-0.009097606,-3.00326465E-05,0.9960735],"scale":[1.00000012,1.0,0.99999994],"name":"mixamorig:LeftHandIndex3"},{"translation":[-9.083748E-09,4.84466547E-08,-0.105021104],"rotation":[-1.490116E-08,9.31322353E-10,4.656613E-10,1.0],"scale":[1.00000024,1.0,1.00000012],"name":"mixamorig:LeftHandIndex4"},{"children":[25],"translation":[1.23175623E-05,-4.63150027E-05,-0.3989026],"rotation":[0.111309007,-0.034576267,0.00141502672,0.9931832],"scale":[1.00000012,1.00000012,1.0],"name":"mixamorig:LeftHandMiddle1"},{"children":[26],"translation":[0.0,0.0,-0.121457316],"rotation":[0.281101137,-0.0288784634,-3.36996868E-06,0.9592436],"scale":[1.00000024,1.00000012,0.9999997],"name":"mixamorig:LeftHandMiddle2"},{"children":[27],"translation":[0.0,9.689331E-08,-0.130499],"rotation":[0.212611616,-0.02186636,-2.49659183E-06,0.9768921],"scale":[1.00000024,1.00000012,0.99999994],"name":"mixamorig:LeftHandMiddle3"},{"translation":[-4.84466547E-08,-1.93786619E-07,-0.109432273],"rotation":[7.45058149E-09,9.313227E-10,-1.86264537E-09,1.0],"scale":[0.99999994,0.9999999,0.99999994],"name":"mixamorig:LeftHandMiddle4"},{"children":[29],"translation":[0.119608395,0.0151251424,-0.358430237],"rotation":[0.17906329,-0.04103995,0.002741534,0.9829774],"scale":[1.00000012,1.00000012,0.99999994],"name":"mixamorig:LeftHandRing1"},{"children":[30],"translation":[0.0,4.84466547E-08,-0.08240233],"rotation":[0.310558647,-0.03193323,-5.72850731E-05,0.9500177],"name":"mixamorig:LeftHandRing2"},{"children":[31],"translation":[0.0,0.0,-0.103881061],"rotation":[0.258564681,-0.0265789088,-1.92084481E-05,0.965628266],"scale":[0.9999999,0.9999999,0.99999994],"name":"mixamorig:LeftHandRing3"},{"translation":[-4.84466547E-08,-1.93786619E-07,-0.102782778],"rotation":[1.86264471E-09,3.02679881E-09,-5.587937E-09,1.0],"scale":[0.999999762,0.999999762,1.0],"name":"mixamorig:LeftHandRing4"},{"children":[33],"translation":[0.194477558,0.0287953354,-0.299060047],"rotation":[0.165806368,-0.0401791558,0.00242378074,0.985336542],"scale":[1.00000012,1.0,1.00000012],"name":"mixamorig:LeftHandPinky1"},{"children":[34],"translation":[2.42233273E-08,-4.84466547E-08,-0.0734255537],"rotation":[0.321096033,-0.0330070928,-6.12428339E-05,0.9464713],"name":"mixamorig:LeftHandPinky2"},{"children":[35],"translation":[0.0,1.93786619E-07,-0.09169634],"rotation":[0.267989248,-0.02753954,5.13517932E-07,0.963028252],"scale":[0.9999999,1.00000012,0.99999994],"name":"mixamorig:LeftHandPinky3"},{"translation":[9.689331E-08,0.0,-0.05816336],"rotation":[0.0,3.725291E-09,-3.725291E-09,1.0],"scale":[0.9999997,0.999999762,0.999999762],"name":"mixamorig:LeftHandPinky4"},{"children":[37],"translation":[-0.208912238,-0.12246263,-0.6176154],"rotation":[-0.550056,-0.564742565,-0.4613857,-0.406973541],"scale":[0.9999998,0.9999998,1.00000012],"name":"mixamorig:RightShoulder"},{"children":[38],"translation":[0.0,0.0,-0.4414917],"rotation":[0.566608667,-0.0428436771,0.0459804125,0.8215868],"scale":[1.0,1.00000036,1.00000012],"name":"mixamorig:RightArm"},{"children":[39],"translation":[-4.84466547E-08,0.0,-0.7589037],"rotation":[4.57455172E-07,-0.113761827,7.053995E-08,0.9935081],"scale":[0.99999994,1.00000024,0.9999998],"name":"mixamorig:RightForeArm"},{"children":[40,44,48,52,56],"translation":[-7.26699838E-08,9.689331E-08,-0.740953],"rotation":[-0.151022717,-0.0453067124,-0.0455820858,0.98643893],"scale":[1.0,0.99999994,1.00000024],"name":"mixamorig:RightHand"},{"children":[41],"translation":[0.165029466,0.150061578,-0.163657069],"rotation":[0.265338153,-0.18008846,0.163692743,0.9329354],"scale":[0.99999994,1.0,0.99999994],"name":"mixamorig:RightHandThumb1"},{"children":[42],"translation":[0.0,9.689331E-08,-0.101576164],"rotation":[0.009593744,0.139049619,-1.57534252E-08,0.990238965],"scale":[1.00000012,1.00000024,1.00000024],"name":"mixamorig:RightHandThumb2"},{"children":[43],"translation":[4.84466547E-08,9.689331E-08,-0.07554345],"rotation":[-0.128172338,0.0626875,-2.21123173E-08,0.989768744],"scale":[1.00000036,1.00000012,1.00000024],"name":"mixamorig:RightHandThumb3"},{"translation":[-1.21116637E-08,0.0,-0.108967185],"rotation":[1.86264533E-08,0.0,-2.00234354E-08,1.0],"scale":[1.00000012,0.999999762,1.0],"name":"mixamorig:RightHandThumb4"},{"children":[45],"translation":[0.098472476,0.03107039,-0.3667679],"rotation":[0.5383113,0.06083467,-0.0103628831,0.8404836],"scale":[1.0,0.99999994,1.00000012],"name":"mixamorig:RightHandIndex1"},{"children":[46],"translation":[0.0,0.0,-0.126234934],"rotation":[0.6442702,0.0524895638,-3.66184452E-08,0.762994647],"scale":[1.00000012,1.00000012,1.00000012],"name":"mixamorig:RightHandIndex2"},{"children":[47],"translation":[0.0,0.0,-0.1268126],"rotation":[0.6442702,0.0524894558,1.6356239E-07,0.762994647],"scale":[0.9999997,0.99999994,0.99999994],"name":"mixamorig:RightHandIndex3"},{"translation":[-2.42233273E-08,4.84466547E-08,-0.09299607],"rotation":[8.881784E-16,3.7252903E-09,2.79396772E-09,1.0],"scale":[1.0,0.9999999,1.0],"name":"mixamorig:RightHandIndex4"},{"children":[49],"translation":[5.81359836E-06,3.31375122E-05,-0.371361047],"rotation":[0.538311064,0.0608346,-0.0103628477,0.8404838],"scale":[1.00000012,0.99999994,0.9999998],"name":"mixamorig:RightHandMiddle1"},{"children":[50],"translation":[0.0,2.90679935E-07,-0.109025516],"rotation":[0.6442705,0.0524899028,-2.97830127E-07,0.762994349],"scale":[0.99999994,1.00000012,0.9999999],"name":"mixamorig:RightHandMiddle2"},{"children":[51],"translation":[-2.42233273E-08,0.0,-0.113187663],"rotation":[0.644270658,0.05248949,1.68444956E-07,0.7629943],"scale":[1.00000012,1.00000036,1.00000012],"name":"mixamorig:RightHandMiddle3"},{"translation":[2.42233273E-08,-4.84466547E-08,-0.0881855041],"rotation":[7.450582E-09,-4.440892E-16,-3.7252903E-09,1.0],"scale":[0.9999999,1.0,0.9999998],"name":"mixamorig:RightHandMiddle4"},{"children":[53],"translation":[-0.102214471,0.00885256,-0.340320319],"rotation":[0.538311243,0.060834568,-0.0103628235,0.8404837],"scale":[1.0,1.00000012,0.9999999],"name":"mixamorig:RightHandRing1"},{"children":[54],"translation":[3.63349919E-08,0.0,-0.071838446],"rotation":[0.6442705,0.05248978,-1.90416E-07,0.7629944],"scale":[1.00000024,1.0,0.99999994],"name":"mixamorig:RightHandRing2"},{"children":[55],"translation":[0.0,0.0,-0.10001754],"rotation":[0.644270241,0.05248986,-2.07504542E-07,0.7629946],"scale":[0.9999998,0.9999997,0.999999642],"name":"mixamorig:RightHandRing3"},{"translation":[-2.42233273E-08,-4.84466547E-08,-0.0862422138],"rotation":[0.0,-3.7252903E-09,-4.656612E-09,1.0],"scale":[1.0,1.00000024,1.0],"name":"mixamorig:RightHandRing4"},{"children":[57],"translation":[-0.174025491,0.0255098771,-0.2914946],"rotation":[0.5383111,0.06083407,-0.01036251,0.8404838],"scale":[1.00000024,0.99999994,0.99999994],"name":"mixamorig:RightHandPinky1"},{"children":[58],"translation":[-6.055832E-08,0.0,-0.06612329],"rotation":[0.644270241,0.05248946,5.126583E-08,0.7629946],"scale":[1.00000024,1.00000012,1.00000036],"name":"mixamorig:RightHandPinky2"},{"children":[59],"translation":[0.0,-1.93786619E-07,-0.08090979],"rotation":[0.6442704,0.0524898469,-1.41591357E-07,0.7629944],"scale":[0.9999999,0.9999999,1.0],"name":"mixamorig:RightHandPinky3"},{"translation":[-2.42233273E-08,0.0,-0.0637904853],"rotation":[-7.450582E-09,0.0,-1.86264559E-09,1.0],"scale":[0.9999999,0.9999998,0.9999998],"name":"mixamorig:RightHandPinky4"},{"children":[61],"translation":[0.357169837,0.00233428087,0.118397035],"rotation":[-0.0529552475,-0.9956798,0.07612951,-0.004663242],"scale":[1.00000036,0.9999997,0.9999996],"name":"mixamorig:LeftUpLeg"},{"children":[62],"translation":[-2.42233273E-08,-9.689331E-08,-0.918104053],"rotation":[-0.21532093,-0.00143981073,-0.01755675,0.976384461],"scale":[0.9999999,1.0,1.00000012],"name":"mixamorig:LeftLeg"},{"children":[63],"translation":[7.26699838E-08,-6.055832E-08,-1.41426826],"rotation":[0.5302957,0.0157790687,0.006506253,0.847640932],"scale":[1.00000012,1.00000036,1.0],"name":"mixamorig:LeftFoot"},{"children":[64],"translation":[-2.42233273E-08,-4.84466547E-08,-0.6096],"rotation":[0.331864744,-0.00405911123,0.008784187,0.943277359],"scale":[0.9999998,1.00000012,1.00000012],"name":"mixamorig:LeftToeBase"},{"translation":[2.42233273E-08,-3.027916E-09,-0.284689248],"rotation":[-9.31322353E-10,-1.909029E-09,-5.820766E-11,1.0],"scale":[1.00000024,1.0,1.00000024],"name":"mixamorig:LeftToe_End"},{"children":[66],"translation":[-0.3571699,0.00233437773,0.118385412],"rotation":[0.131493241,-0.9834533,0.104883865,-0.06729432],"scale":[1.00000012,0.999999642,0.999999642],"name":"mixamorig:RightUpLeg"},{"children":[67],"translation":[0.0,0.0,-0.9181148],"rotation":[-0.234144375,-0.0009455463,0.0524858534,0.9707836],"scale":[0.9999998,0.999999762,0.9999999],"name":"mixamorig:RightLeg"},{"children":[68],"translation":[4.84466547E-08,-1.21116637E-08,-1.41426826],"rotation":[0.521837234,0.01644306,-0.0253636353,0.8525094],"scale":[1.0,1.00000024,1.00000012],"name":"mixamorig:RightFoot"},{"children":[69],"translation":[0.0,-2.42233273E-08,-0.609599948],"rotation":[0.333659172,0.00406650035,-0.008938008,0.9426426],"scale":[1.00000012,1.0,0.999999762],"name":"mixamorig:RightToeBase"},{"translation":[-9.689331E-08,-1.513958E-09,-0.284683138],"rotation":[-9.313226E-10,3.918103E-09,2.910383E-11,1.0],"name":"mixamorig:RightToe_End"}],"meshes":[{"primitives":[{"attributes":{"POSITION":1,"TANGENT":2,"NORMAL":3,"TEXCOORD_0":4,"TEXCOORD_1":5,"JOINTS_0":6,"WEIGHTS_0":7},"indices":0,"material":0}],"name":"Survivor"}],"accessors":[{"bufferView":0,"componentType":5123,"count":17058,"type":"SCALAR","name":"accessorIndices"},{"bufferView":1,"componentType":5126,"count":3521,"max":[0.9645079,0.7879933,0.0419745855],"min":[-0.9993571,-0.5288356,-5.148201],"type":"VEC3","name":"accessorPositions"},{"bufferView":2,"componentType":5126,"count":3521,"type":"VEC4","name":"accessorTangents"},{"bufferView":1,"byteOffset":42252,"componentType":5126,"count":3521,"type":"VEC3","name":"accessorNormals"},{"bufferView":3,"componentType":5126,"count":3521,"type":"VEC2","name":"accessorUVs"},{"bufferView":3,"byteOffset":28168,"componentType":5126,"count":3521,"type":"VEC2","name":"accessorUV2s"},{"bufferView":4,"componentType":5123,"count":3521,"type":"VEC4","name":"accessorJoints"},{"bufferView":2,"byteOffset":56336,"componentType":5126,"count":3521,"type":"VEC4","name":"accessorWeights"},{"bufferView":5,"componentType":5126,"count":69,"type":"MAT4","name":"accessorInverseBindMatrices"}],"bufferViews":[{"buffer":0,"byteLength":34116,"name":"bufferViewScalar"},{"buffer":0,"byteOffset":34116,"byteLength":84504,"byteStride":12,"name":"bufferViewFloatVec3"},{"buffer":0,"byteOffset":118620,"byteLength":112672,"byteStride":16,"name":"bufferViewFloatVec4"},{"buffer":0,"byteOffset":231292,"byteLength":56336,"byteStride":8,"name":"bufferViewFloatVec2"},{"buffer":0,"byteOffset":287628,"byteLength":28168,"byteStride":8,"name":"bufferViewUnsignedShortVec4"},{"buffer":0,"byteOffset":315796,"byteLength":4416,"name":"bufferViewFloatMat4"}],"buffers":[{"uri":"model.bin","byteLength":320212}],"materials":[{"pbrMetallicRoughness":{"baseColorFactor":[0.5,0.5,0.5,1.0],"metallicFactor":0.0,"roughnessFactor":0.0},"doubleSided":true,"name":"01 - Default","extras":{"babylonSeparateCullingPass":false}}],"skins":[{"inverseBindMatrices":8,"skeleton":1,"joints":[1,2,3,4,5,6,7,8,9,10,11,12,13,14,15,16,17,18,19,20,21,22,23,24,25,26,27,28,29,30,31,32,33,34,35,36,37,38,39,40,41,42,43,44,45,46,47,48,49,50,51,52,53,54,55,56,57,58,59,60,61,62,63,64,65,66,67,68,69],"name":"skeleton #0"}]}