{"asset":{"version":"2.0","generator":"babylon.js glTF exporter for 3dsmax 2022 v20221031.2"},"scene":0,"scenes":[{"nodes":[0]}],"nodes":[{"children":[1],"mesh":0,"rotation":[9.755299E-07,-9.536743E-07,9.303378E-13,1.0],"scale":[0.0195941683,0.0195941683,0.0195941683],"name":"Tree_bark_Tree_bark_0"},{"mesh":1,"rotation":[-0.5000002,-0.5000002,0.499999255,0.500000536],"name":"Branches_Branches_lp_0"}],"meshes":[{"primitives":[{"attributes":{"POSITION":1,"TANGENT":2,"NORMAL":3,"TEXCOORD_0":4},"indices":0,"material":0}],"name":"Tree_bark_Tree_bark_0"},{"primitives":[{"attributes":{"POSITION":6,"TANGENT":7,"NORMAL":8,"TEXCOORD_0":9,"TEXCOORD_1":10},"indices":5,"material":1}],"name":"Branches_Branches_lp_0"}],"accessors":[{"bufferView":0,"componentType":5123,"count":324,"type":"SCALAR","name":"accessorIndices"},{"bufferView":1,"componentType":5126,"count":76,"max":[0.526626766,15.3967218,0.544999361],"min":[-0.5266269,-2.15059117E-07,-0.5449995],"type":"VEC3","name":"accessorPositions"},{"bufferView":2,"componentType":5126,"count":76,"type":"VEC4","name":"accessorTangents"},{"bufferView":1,"byteOffset":912,"componentType":5126,"count":76,"type":"VEC3","name":"accessorNormals"},{"bufferView":3,"componentType":5126,"count":76,"type":"VEC2","name":"accessorUVs"},{"bufferView":0,"byteOffset":648,"componentType":5123,"count":4125,"type":"SCALAR","name":"accessorIndices"},{"bufferView":1,"byteOffset":1824,"componentType":5126,"count":1246,"max":[15.8418484,5.118762,4.596239],"min":[1.241369,-4.8408823,-4.48079729],"type":"VEC3","name":"accessorPositions"},{"bufferView":2,"byteOffset":1216,"componentType":5126,"count":1246,"type":"VEC4","name":"accessorTangents"},{"bufferView":1,"byteOffset":16776,"componentType":5126,"count":1246,"type":"VEC3","name":"accessorNormals"},{"bufferView":3,"byteOffset":608,"componentType":5126,"count":1246,"type":"VEC2","name":"accessorUVs"},{"bufferView":3,"byteOffset":10576,"componentType":5126,"count":1246,"type":"VEC2","name":"accessorUV2s"}],"bufferViews":[{"buffer":0,"byteLength":8900,"name":"bufferViewScalar"},{"buffer":0,"byteOffset":8900,"byteLength":31728,"byteStride":12,"name":"bufferViewFloatVec3"},{"buffer":0,"byteOffset":40628,"byteLength":21152,"byteStride":16,"name":"bufferViewFloatVec4"},{"buffer":0,"byteOffset":61780,"byteLength":20544,"byteStride":8,"name":"bufferViewFloatVec2"}],"buffers":[{"uri":"tree.bin","byteLength":82324}],"materials":[{"pbrMetallicRoughness":{"baseColorFactor":[0.5,0.5,0.5,1.0],"metallicFactor":0.0,"roughnessFactor":0.0},"doubleSided":true,"name":"Material #51","extras":{"babylonSeparateCullingPass":false}},{"pbrMetallicRoughness":{"baseColorFactor":[0.5,0.5,0.5,1.0],"metallicFactor":0.0,"roughnessFactor":0.0},"doubleSided":true,"name":"Material #50","extras":{"babylonSeparateCullingPass":false}}]}